<svg id="visual" viewBox="0 0 960 540" width="960" height="540" xmlns="http://www.w3.org/2000/svg" xmlns:xlink="http://www.w3.org/1999/xlink" version="1.1"><rect x="0" y="0" width="960" height="540" fill="#002233"></rect><path d="M0 391L10.7 401.2C21.3 411.3 42.7 431.7 64 437.7C85.3 443.7 106.7 435.3 128 430.3C149.3 425.3 170.7 423.7 192 424.8C213.3 426 234.7 430 256 435.2C277.3 440.3 298.7 446.7 320 432.8C341.3 419 362.7 385 384 375.5C405.3 366 426.7 381 448 387.2C469.3 393.3 490.7 390.7 512 401C533.3 411.3 554.7 434.7 576 430.3C597.3 426 618.7 394 640 390.2C661.3 386.3 682.7 410.7 704 421.5C725.3 432.3 746.7 429.7 768 418.8C789.3 408 810.7 389 832 379.7C853.3 370.3 874.7 370.7 896 371C917.3 371.3 938.7 371.7 949.3 371.8L960 372L960 541L949.3 541C938.7 541 917.3 541 896 541C874.7 541 853.3 541 832 541C810.7 541 789.3 541 768 541C746.7 541 725.3 541 704 541C682.7 541 661.3 541 640 541C618.7 541 597.3 541 576 541C554.7 541 533.3 541 512 541C490.7 541 469.3 541 448 541C426.7 541 405.3 541 384 541C362.7 541 341.3 541 320 541C298.7 541 277.3 541 256 541C234.7 541 213.3 541 192 541C170.7 541 149.3 541 128 541C106.7 541 85.3 541 64 541C42.7 541 21.3 541 10.7 541L0 541Z" fill="#6600FF" stroke-linecap="round" stroke-linejoin="miter"></path></svg>