<svg id="visual" viewBox="0 0 960 540" width="960" height="540" xmlns="http://www.w3.org/2000/svg" xmlns:xlink="http://www.w3.org/1999/xlink" version="1.1"><rect x="0" y="0" width="960" height="540" fill="#001220"></rect><path d="M0 370L16 372.3C32 374.7 64 379.3 96 382C128 384.7 160 385.3 192 389C224 392.7 256 399.3 288 406C320 412.7 352 419.3 384 411.7C416 404 448 382 480 378.3C512 374.7 544 389.3 576 393.2C608 397 640 390 672 384C704 378 736 373 768 373.8C800 374.7 832 381.3 864 390.3C896 399.3 928 410.7 944 416.3L960 422L960 541L944 541C928 541 896 541 864 541C832 541 800 541 768 541C736 541 704 541 672 541C640 541 608 541 576 541C544 541 512 541 480 541C448 541 416 541 384 541C352 541 320 541 288 541C256 541 224 541 192 541C160 541 128 541 96 541C64 541 32 541 16 541L0 541Z" fill="#715df2"></path><path d="M0 441L16 435.3C32 429.7 64 418.3 96 414.8C128 411.3 160 415.7 192 412.2C224 408.7 256 397.3 288 399C320 400.7 352 415.3 384 424.7C416 434 448 438 480 431.3C512 424.7 544 407.3 576 399.5C608 391.7 640 393.3 672 402C704 410.7 736 426.3 768 424.7C800 423 832 404 864 397C896 390 928 395 944 397.5L960 400L960 541L944 541C928 541 896 541 864 541C832 541 800 541 768 541C736 541 704 541 672 541C640 541 608 541 576 541C544 541 512 541 480 541C448 541 416 541 384 541C352 541 320 541 288 541C256 541 224 541 192 541C160 541 128 541 96 541C64 541 32 541 16 541L0 541Z" fill="#6d52f6"></path><path d="M0 415L16 422.7C32 430.3 64 445.7 96 446.3C128 447 160 433 192 426.2C224 419.3 256 419.7 288 427.2C320 434.7 352 449.3 384 454.2C416 459 448 454 480 454.3C512 454.7 544 460.3 576 457.8C608 455.3 640 444.7 672 438.7C704 432.7 736 431.3 768 434.3C800 437.3 832 444.7 864 446C896 447.3 928 442.7 944 440.3L960 438L960 541L944 541C928 541 896 541 864 541C832 541 800 541 768 541C736 541 704 541 672 541C640 541 608 541 576 541C544 541 512 541 480 541C448 541 416 541 384 541C352 541 320 541 288 541C256 541 224 541 192 541C160 541 128 541 96 541C64 541 32 541 16 541L0 541Z" fill="#6a47f9"></path><path d="M0 484L16 479.7C32 475.3 64 466.7 96 465.5C128 464.3 160 470.7 192 472C224 473.3 256 469.7 288 463.5C320 457.3 352 448.7 384 450.3C416 452 448 464 480 465.7C512 467.3 544 458.7 576 457.7C608 456.7 640 463.3 672 461.5C704 459.7 736 449.3 768 445.7C800 442 832 445 864 451.3C896 457.7 928 467.3 944 472.2L960 477L960 541L944 541C928 541 896 541 864 541C832 541 800 541 768 541C736 541 704 541 672 541C640 541 608 541 576 541C544 541 512 541 480 541C448 541 416 541 384 541C352 541 320 541 288 541C256 541 224 541 192 541C160 541 128 541 96 541C64 541 32 541 16 541L0 541Z" fill="#6839fb"></path><path d="M0 501L16 496.7C32 492.3 64 483.7 96 479.2C128 474.7 160 474.3 192 473.2C224 472 256 470 288 474.7C320 479.3 352 490.7 384 492.2C416 493.7 448 485.3 480 482.5C512 479.7 544 482.3 576 482.5C608 482.7 640 480.3 672 482.5C704 484.7 736 491.3 768 495C800 498.7 832 499.3 864 496.3C896 493.3 928 486.7 944 483.3L960 480L960 541L944 541C928 541 896 541 864 541C832 541 800 541 768 541C736 541 704 541 672 541C640 541 608 541 576 541C544 541 512 541 480 541C448 541 416 541 384 541C352 541 320 541 288 541C256 541 224 541 192 541C160 541 128 541 96 541C64 541 32 541 16 541L0 541Z" fill="#6626fd"></path><path d="M0 503L16 502.3C32 501.7 64 500.3 96 500C128 499.7 160 500.3 192 504C224 507.7 256 514.3 288 514.5C320 514.7 352 508.3 384 505.7C416 503 448 504 480 507.7C512 511.3 544 517.7 576 516.3C608 515 640 506 672 505.5C704 505 736 513 768 514.5C800 516 832 511 864 508C896 505 928 504 944 503.5L960 503L960 541L944 541C928 541 896 541 864 541C832 541 800 541 768 541C736 541 704 541 672 541C640 541 608 541 576 541C544 541 512 541 480 541C448 541 416 541 384 541C352 541 320 541 288 541C256 541 224 541 192 541C160 541 128 541 96 541C64 541 32 541 16 541L0 541Z" fill="#6600ff"></path></svg>