<svg id="visual" viewBox="0 0 960 540" width="960" height="540" xmlns="http://www.w3.org/2000/svg" xmlns:xlink="http://www.w3.org/1999/xlink" version="1.1"><rect x="0" y="0" width="960" height="540" fill="#001122"></rect><path d="M0 144L20 139.3C40 134.7 80 125.3 120 119.7C160 114 200 112 240 111C280 110 320 110 360 127.5C400 145 440 180 480 174C520 168 560 121 600 97.2C640 73.3 680 72.7 720 89.7C760 106.7 800 141.3 840 152.2C880 163 920 150 940 143.5L960 137L960 0L940 0C920 0 880 0 840 0C800 0 760 0 720 0C680 0 640 0 600 0C560 0 520 0 480 0C440 0 400 0 360 0C320 0 280 0 240 0C200 0 160 0 120 0C80 0 40 0 20 0L0 0Z" fill="#6600FF" stroke-linecap="round" stroke-linejoin="miter"></path></svg>