<svg id="visual" viewBox="0 0 900 600" width="900" height="600" xmlns="http://www.w3.org/2000/svg" xmlns:xlink="http://www.w3.org/1999/xlink" version="1.1"><rect x="0" y="0" width="900" height="600" fill="#140021"></rect><path d="M0 350L129 350L129 252L257 252L257 297L386 297L386 335L514 335L514 288L643 288L643 377L771 377L771 342L900 342L900 351L900 601L900 601L771 601L771 601L643 601L643 601L514 601L514 601L386 601L386 601L257 601L257 601L129 601L129 601L0 601Z" fill="#9900ff"></path><path d="M0 431L129 431L129 429L257 429L257 405L386 405L386 443L514 443L514 449L643 449L643 412L771 412L771 411L900 411L900 407L900 601L900 601L771 601L771 601L643 601L643 601L514 601L514 601L386 601L386 601L257 601L257 601L129 601L129 601L0 601Z" fill="#7700c6"></path><path d="M0 503L129 503L129 449L257 449L257 506L386 506L386 459L514 459L514 544L643 544L643 463L771 463L771 530L900 530L900 510L900 601L900 601L771 601L771 601L643 601L643 601L514 601L514 601L386 601L386 601L257 601L257 601L129 601L129 601L0 601Z" fill="#560090"></path></svg>